SplineFontDB: 3.2
FontName: CryptofTomorrow
FullName: Crypt of Tomorrow
FamilyName: Crypt of Tomorrow
Weight: Book
Copyright: Typeface (c) Auntie Pixelante 2008. All Rights Reserved. www.auntiepixelante.com
Version: 1.00 September 8, 2008, initial release
ItalicAngle: 0
UnderlinePosition: -292
UnderlineWidth: 150
Ascent: 1638
Descent: 410
InvalidEm: 0
sfntRevision: 0x00010000
woffMajor: 1
woffMinor: 0
LayerCount: 2
Layer: 0 1 "Back" 1
Layer: 1 1 "Fore" 0
XUID: [1021 737 319405113 3525056]
StyleMap: 0x0040
FSType: 8
OS2Version: 1
OS2_WeightWidthSlopeOnly: 0
OS2_UseTypoMetrics: 0
CreationTime: 1220879213
ModificationTime: 1624227974
PfmFamily: 17
TTFWeight: 400
TTFWidth: 5
LineGap: 0
VLineGap: 0
Panose: 2 0 5 0 0 0 0 0 0 0
OS2TypoAscent: 1280
OS2TypoAOffset: 0
OS2TypoDescent: 512
OS2TypoDOffset: 0
OS2TypoLinegap: 307
OS2WinAscent: 1280
OS2WinAOffset: 0
OS2WinDescent: 512
OS2WinDOffset: 0
HheadAscent: 1280
HheadAOffset: 0
HheadDescent: 512
HheadDOffset: 0
OS2SubXSize: 1434
OS2SubYSize: 1331
OS2SubXOff: 0
OS2SubYOff: 283
OS2SupXSize: 1434
OS2SupYSize: 1331
OS2SupXOff: 0
OS2SupYOff: 977
OS2StrikeYSize: 102
OS2StrikeYPos: 530
OS2Vendor: 'HL  '
OS2CodePages: 20000111.41000000
OS2UnicodeRanges: 800000a7.5000004a.00000000.00000000
DEI: 91125
ShortTable: maxp 16
  1
  0
  236
  20
  3
  0
  0
  0
  0
  0
  0
  0
  0
  0
  0
  0
EndShort
LangName: 1033 "Typeface +AKkA Auntie Pixelante 2008. All Rights Reserved. www.auntiepixelante.com" "" "Regular" "Crypt of Tomorrow:Version 1.00" "" "Version 1.00 September 8, 2008, initial release" "" "" "" "" "This font was created using FontCreator 5.6 from High-Logic.com"
LangName: 1027 "" "" "Normal"
LangName: 1029 "" "" "oby+AQ0A-ejn+AOkA"
LangName: 1030 "" "" "normal"
LangName: 1031 "" "" "Standard"
LangName: 1032 "" "" "+A5oDsQO9A78DvQO5A7oDrAAA"
LangName: 1034 "" "" "Normal"
LangName: 1035 "" "" "Normaali"
LangName: 1036 "" "" "Normal"
LangName: 1038 "" "" "Norm+AOEA-l"
LangName: 1040 "" "" "Normale"
LangName: 1043 "" "" "Standaard"

StartChar: .notdef
Encoding: 65536 -1 0
Width: 1280
Flags: W
LayerCount: 2
Fore
SplineSet
256 1024 m 1,0,-1
 256 256 l 1,1,-1
 768 256 l 1,2,-1
 768 1024 l 1,3,-1
 256 1024 l 1,0,-1
0 0 m 1,4,-1
 0 1280 l 1,5,-1
 1024 1280 l 1,6,-1
 1024 0 l 1,7,-1
 0 0 l 1,4,-1
EndSplineSet
EndChar

StartChar: exclam
Encoding: 33 33 4
Width: 1280
GlyphClass: 2
Flags: W
LayerCount: 2
Fore
SplineSet
256 1280 m 1,0,-1
 768 1280 l 1,1,-1
 768 768 l 1,2,-1
 512 768 l 1,3,-1
 512 512 l 1,4,-1
 256 512 l 1,5,-1
 256 1280 l 1,0,-1
512 256 m 1,6,-1
 512 0 l 1,7,-1
 256 0 l 1,8,-1
 256 256 l 1,9,-1
 512 256 l 1,6,-1
EndSplineSet
EndChar

StartChar: quotedbl
Encoding: 34 34 5
Width: 1280
GlyphClass: 2
Flags: W
LayerCount: 2
Fore
SplineSet
256 1280 m 1,0,-1
 256 512 l 1,1,-1
 0 512 l 1,2,-1
 0 1280 l 1,3,-1
 256 1280 l 1,0,-1
768 1280 m 1,4,-1
 768 512 l 1,5,-1
 512 512 l 1,6,-1
 512 1280 l 1,7,-1
 768 1280 l 1,4,-1
EndSplineSet
EndChar

StartChar: dollar
Encoding: 36 36 7
Width: 1280
GlyphClass: 2
Flags: W
LayerCount: 2
Fore
SplineSet
256 512 m 1,0,-1
 0 512 l 1,1,-1
 0 1024 l 1,2,-1
 256 1024 l 1,3,-1
 256 1280 l 1,4,-1
 768 1280 l 1,5,-1
 768 1024 l 1,6,-1
 1024 1024 l 1,7,-1
 1024 768 l 1,8,-1
 768 768 l 1,9,-1
 768 512 l 1,10,-1
 1024 512 l 1,11,-1
 1024 0 l 1,12,-1
 768 0 l 1,13,-1
 768 -256 l 1,14,-1
 256 -256 l 1,15,-1
 256 0 l 1,16,-1
 0 0 l 1,17,-1
 0 256 l 1,18,-1
 256 256 l 1,19,-1
 256 512 l 1,0,-1
EndSplineSet
EndChar

StartChar: quotesingle
Encoding: 39 39 10
Width: 1280
GlyphClass: 2
Flags: W
LayerCount: 2
Fore
SplineSet
768 1280 m 1,0,-1
 768 512 l 1,1,-1
 256 512 l 1,2,-1
 256 1280 l 1,3,-1
 768 1280 l 1,0,-1
EndSplineSet
EndChar

StartChar: parenleft
Encoding: 40 40 11
Width: 1280
GlyphClass: 2
Flags: W
LayerCount: 2
Fore
SplineSet
256 1024 m 1,0,-1
 256 1280 l 1,1,-1
 768 1280 l 1,2,-1
 768 1024 l 1,3,-1
 512 1024 l 1,4,-1
 512 256 l 1,5,-1
 768 256 l 1,6,-1
 768 0 l 1,7,-1
 256 0 l 1,8,-1
 256 256 l 1,9,-1
 0 256 l 1,10,-1
 0 1024 l 1,11,-1
 256 1024 l 1,0,-1
EndSplineSet
EndChar

StartChar: parenright
Encoding: 41 41 12
Width: 1280
GlyphClass: 2
Flags: W
LayerCount: 2
Fore
SplineSet
512 1024 m 1,0,-1
 256 1024 l 1,1,-1
 256 1280 l 1,2,-1
 768 1280 l 1,3,-1
 768 1024 l 1,4,-1
 1024 1024 l 1,5,-1
 1024 256 l 1,6,-1
 768 256 l 1,7,-1
 768 0 l 1,8,-1
 256 0 l 1,9,-1
 256 256 l 1,10,-1
 512 256 l 1,11,-1
 512 1024 l 1,0,-1
EndSplineSet
EndChar

StartChar: plus
Encoding: 43 43 14
Width: 1280
GlyphClass: 2
Flags: W
LayerCount: 2
Fore
SplineSet
256 768 m 1,0,-1
 256 1024 l 1,1,-1
 512 1024 l 1,2,-1
 512 768 l 1,3,-1
 768 768 l 1,4,-1
 768 512 l 1,5,-1
 512 512 l 1,6,-1
 512 256 l 1,7,-1
 256 256 l 1,8,-1
 256 512 l 1,9,-1
 0 512 l 1,10,-1
 0 768 l 1,11,-1
 256 768 l 1,0,-1
EndSplineSet
EndChar

StartChar: comma
Encoding: 44 44 15
Width: 1280
GlyphClass: 2
Flags: W
LayerCount: 2
Fore
SplineSet
768 512 m 1,0,-1
 768 -256 l 1,1,-1
 256 -256 l 1,2,-1
 256 512 l 1,3,-1
 768 512 l 1,0,-1
EndSplineSet
EndChar

StartChar: hyphen
Encoding: 45 45 16
AltUni2: 0000ad.ffffffff.0
Width: 1280
GlyphClass: 2
Flags: W
LayerCount: 2
Fore
SplineSet
1024 768 m 1,0,-1
 1024 512 l 1,1,-1
 0 512 l 1,2,-1
 0 768 l 1,3,-1
 1024 768 l 1,0,-1
EndSplineSet
EndChar

StartChar: period
Encoding: 46 46 17
Width: 1280
GlyphClass: 2
Flags: W
LayerCount: 2
Fore
SplineSet
768 512 m 1,0,-1
 768 0 l 1,1,-1
 256 0 l 1,2,-1
 256 512 l 1,3,-1
 768 512 l 1,0,-1
EndSplineSet
EndChar

StartChar: slash
Encoding: 47 47 18
Width: 1280
GlyphClass: 2
Flags: W
LayerCount: 2
Fore
SplineSet
512 512 m 5,0,-1
 512 0 l 5,1,-1
 0 0 l 5,2,-1
 0 512 l 5,3,-1
 256 512 l 5,4,-1
 256 768 l 5,5,-1
 512 768 l 5,6,-1
 512 1280 l 5,7,-1
 1024 1280 l 5,8,-1
 1024 768 l 5,9,-1
 768 768 l 5,10,-1
 768 512 l 5,11,-1
 512 512 l 5,0,-1
EndSplineSet
EndChar

StartChar: zero
Encoding: 48 48 19
Width: 1280
GlyphClass: 2
Flags: W
LayerCount: 2
Fore
SplineSet
512 1024 m 5,0,-1
 512 256 l 5,1,-1
 768 256 l 5,2,-1
 768 1024 l 5,3,-1
 512 1024 l 5,0,-1
0 0 m 5,4,-1
 0 1280 l 5,5,-1
 1024 1280 l 5,6,-1
 1024 0 l 5,7,-1
 0 0 l 5,4,-1
EndSplineSet
EndChar

StartChar: one
Encoding: 49 49 20
Width: 1280
GlyphClass: 2
Flags: W
LayerCount: 2
Fore
SplineSet
256 1024 m 1,0,-1
 0 1024 l 1,1,-1
 0 1280 l 1,2,-1
 768 1280 l 1,3,-1
 768 256 l 1,4,-1
 1024 256 l 1,5,-1
 1024 0 l 1,6,-1
 0 0 l 1,7,-1
 0 256 l 1,8,-1
 256 256 l 1,9,-1
 256 1024 l 1,0,-1
EndSplineSet
EndChar

StartChar: two
Encoding: 50 50 21
Width: 1280
GlyphClass: 2
Flags: W
LayerCount: 2
Fore
SplineSet
256 1024 m 1,0,-1
 256 768 l 1,1,-1
 0 768 l 1,2,-1
 0 1280 l 1,3,-1
 1024 1280 l 1,4,-1
 1024 768 l 1,5,-1
 768 768 l 1,6,-1
 768 512 l 1,7,-1
 512 512 l 1,8,-1
 512 256 l 1,9,-1
 1024 256 l 1,10,-1
 1024 0 l 1,11,-1
 0 0 l 1,12,-1
 0 512 l 1,13,-1
 257 512 l 1,14,-1
 257 768 l 1,15,-1
 512 768 l 1,16,-1
 512 1024 l 1,17,-1
 256 1024 l 1,0,-1
EndSplineSet
EndChar

StartChar: three
Encoding: 51 51 22
Width: 1280
GlyphClass: 2
Flags: W
LayerCount: 2
Fore
SplineSet
512 1024 m 1,0,-1
 0 1024 l 1,1,-1
 0 1280 l 1,2,-1
 1024 1280 l 1,3,-1
 1024 0 l 1,4,-1
 0 0 l 1,5,-1
 0 256 l 1,6,-1
 512 256 l 1,7,-1
 512 512 l 1,8,-1
 256 512 l 1,9,-1
 256 768 l 1,10,-1
 512 768 l 1,11,-1
 512 1024 l 1,0,-1
EndSplineSet
EndChar

StartChar: four
Encoding: 52 52 23
Width: 1280
GlyphClass: 2
Flags: W
LayerCount: 2
Fore
SplineSet
0 512 m 1,0,-1
 0 1280 l 1,1,-1
 256 1280 l 1,2,-1
 256 768 l 1,3,-1
 512 768 l 1,4,-1
 512 1280 l 1,5,-1
 1024 1280 l 1,6,-1
 1024 0 l 1,7,-1
 512 0 l 1,8,-1
 512 512 l 1,9,-1
 0 512 l 1,0,-1
EndSplineSet
EndChar

StartChar: five
Encoding: 53 53 24
Width: 1280
GlyphClass: 2
Flags: W
LayerCount: 2
Fore
SplineSet
0 1280 m 1,0,-1
 1024 1280 l 1,1,-1
 1024 1024 l 1,2,-1
 256 1024 l 1,3,-1
 256 768 l 1,4,-1
 1024 768 l 1,5,-1
 1024 0 l 1,6,-1
 0 0 l 1,7,-1
 0 256 l 1,8,-1
 512 256 l 1,9,-1
 512 512 l 1,10,-1
 0 512 l 1,11,-1
 0 1280 l 1,0,-1
EndSplineSet
EndChar

StartChar: six
Encoding: 54 54 25
Width: 1280
GlyphClass: 2
Flags: W
LayerCount: 2
Fore
SplineSet
256 512 m 1,0,-1
 256 256 l 1,1,-1
 512 256 l 1,2,-1
 512 512 l 1,3,-1
 256 512 l 1,0,-1
1024 1280 m 1,4,-1
 1024 1024 l 1,5,-1
 256 1024 l 1,6,-1
 256 768 l 1,7,-1
 1024 768 l 1,8,-1
 1024 0 l 1,9,-1
 0 0 l 1,10,-1
 0 1280 l 1,11,-1
 1024 1280 l 1,4,-1
EndSplineSet
EndChar

StartChar: seven
Encoding: 55 55 26
Width: 1280
GlyphClass: 2
Flags: W
LayerCount: 2
Fore
SplineSet
512 1024 m 1,0,-1
 0 1024 l 1,1,-1
 0 1280 l 1,2,-1
 1024 1280 l 1,3,-1
 1024 512 l 1,4,-1
 768 512 l 1,5,-1
 768 0 l 1,6,-1
 256 0 l 1,7,-1
 256 768 l 1,8,-1
 512 768 l 1,9,-1
 512 1024 l 1,0,-1
EndSplineSet
EndChar

StartChar: eight
Encoding: 56 56 27
Width: 1280
GlyphClass: 2
Flags: W
LayerCount: 2
Fore
SplineSet
512 1024 m 1,0,-1
 512 768 l 1,1,-1
 768 768 l 1,2,-1
 768 1024 l 1,3,-1
 512 1024 l 1,0,-1
512 512 m 1,4,-1
 512 256 l 1,5,-1
 768 256 l 1,6,-1
 768 512 l 1,7,-1
 512 512 l 1,4,-1
0 0 m 1,8,-1
 0 1280 l 1,9,-1
 1024 1280 l 1,10,-1
 1024 0 l 1,11,-1
 0 0 l 1,8,-1
EndSplineSet
EndChar

StartChar: nine
Encoding: 57 57 28
Width: 1280
GlyphClass: 2
Flags: W
LayerCount: 2
Fore
SplineSet
256 1024 m 1,0,-1
 256 768 l 1,1,-1
 512 768 l 1,2,-1
 512 1024 l 1,3,-1
 256 1024 l 1,0,-1
0 512 m 1,4,-1
 0 1280 l 1,5,-1
 1024 1280 l 1,6,-1
 1024 0 l 1,7,-1
 512 0 l 1,8,-1
 512 512 l 1,9,-1
 0 512 l 1,4,-1
EndSplineSet
EndChar

StartChar: colon
Encoding: 58 58 29
Width: 1280
GlyphClass: 2
Flags: W
LayerCount: 2
Fore
SplineSet
768 1280 m 1,0,-1
 768 768 l 1,1,-1
 256 768 l 1,2,-1
 256 1280 l 1,3,-1
 768 1280 l 1,0,-1
768 512 m 1,4,-1
 768 0 l 1,5,-1
 256 0 l 1,6,-1
 256 512 l 1,7,-1
 768 512 l 1,4,-1
EndSplineSet
EndChar

StartChar: semicolon
Encoding: 59 59 30
AltUni2: 00037e.ffffffff.0
Width: 1280
GlyphClass: 2
Flags: W
LayerCount: 2
Fore
SplineSet
768 1280 m 1,0,-1
 768 768 l 1,1,-1
 256 768 l 1,2,-1
 256 1280 l 1,3,-1
 768 1280 l 1,0,-1
768 512 m 1,4,-1
 768 -256 l 1,5,-1
 256 -256 l 1,6,-1
 256 512 l 1,7,-1
 768 512 l 1,4,-1
EndSplineSet
EndChar

StartChar: less
Encoding: 60 60 31
Width: 1280
GlyphClass: 2
Flags: W
LayerCount: 2
Fore
SplineSet
256 512 m 1,0,-1
 0 512 l 1,1,-1
 0 768 l 1,2,-1
 256 768 l 1,3,-1
 256 1024 l 1,4,-1
 512 1024 l 1,5,-1
 512 1280 l 1,6,-1
 1024 1280 l 1,7,-1
 1024 1024 l 1,8,-1
 768 1024 l 1,9,-1
 768 256 l 1,10,-1
 1024 256 l 1,11,-1
 1024 0 l 1,12,-1
 512 0 l 1,13,-1
 512 256 l 1,14,-1
 256 256 l 1,15,-1
 256 512 l 1,0,-1
EndSplineSet
EndChar

StartChar: equal
Encoding: 61 61 32
Width: 1280
GlyphClass: 2
Flags: W
LayerCount: 2
Fore
SplineSet
1024 1024 m 1,0,-1
 1024 768 l 1,1,-1
 0 768 l 1,2,-1
 0 1024 l 1,3,-1
 1024 1024 l 1,0,-1
1024 512 m 1,4,-1
 1024 256 l 1,5,-1
 0 256 l 1,6,-1
 0 512 l 1,7,-1
 1024 512 l 1,4,-1
EndSplineSet
EndChar

StartChar: greater
Encoding: 62 62 33
Width: 1280
GlyphClass: 2
Flags: W
LayerCount: 2
Fore
SplineSet
768 768 m 1,0,-1
 996 768 l 1,1,-1
 996 512 l 1,2,-1
 768 512 l 1,3,-1
 768 256 l 1,4,-1
 512 256 l 1,5,-1
 512 0 l 1,6,-1
 0 0 l 1,7,-1
 0 256 l 1,8,-1
 256 256 l 1,9,-1
 256 1024 l 1,10,-1
 0 1024 l 1,11,-1
 0 1280 l 1,12,-1
 512 1280 l 1,13,-1
 512 1024 l 1,14,-1
 768 1024 l 1,15,-1
 768 768 l 1,0,-1
EndSplineSet
EndChar

StartChar: question
Encoding: 63 63 34
Width: 1280
GlyphClass: 2
Flags: W
LayerCount: 2
Fore
SplineSet
512 768 m 1,0,-1
 0 768 l 1,1,-1
 0 1280 l 1,2,-1
 1024 1280 l 1,3,-1
 1024 512 l 1,4,-1
 512 512 l 1,5,-1
 512 768 l 1,0,-1
512 256 m 1,6,-1
 512 0 l 1,7,-1
 256 0 l 1,8,-1
 256 256 l 1,9,-1
 512 256 l 1,6,-1
EndSplineSet
EndChar

StartChar: A
Encoding: 65 65 36
Width: 1280
GlyphClass: 2
Flags: W
LayerCount: 2
Fore
SplineSet
512 1024 m 1,0,-1
 512 768 l 1,1,-1
 768 768 l 1,2,-1
 768 1024 l 1,3,-1
 512 1024 l 1,0,-1
512 512 m 1,4,-1
 512 0 l 1,5,-1
 0 0 l 1,6,-1
 0 1280 l 1,7,-1
 1024 1280 l 1,8,-1
 1024 0 l 1,9,-1
 768 0 l 1,10,-1
 768 512 l 1,11,-1
 512 512 l 1,4,-1
EndSplineSet
EndChar

StartChar: B
Encoding: 66 66 37
Width: 1280
GlyphClass: 2
Flags: W
LayerCount: 2
Fore
SplineSet
512 1024 m 1,0,-1
 512 768 l 1,1,-1
 768 768 l 1,2,-1
 768 1024 l 1,3,-1
 512 1024 l 1,0,-1
512 512 m 1,4,-1
 512 256 l 1,5,-1
 768 256 l 1,6,-1
 768 512 l 1,7,-1
 512 512 l 1,4,-1
0 0 m 1,8,-1
 0 1280 l 1,9,-1
 1024 1280 l 1,10,-1
 1024 0 l 1,11,-1
 0 0 l 1,8,-1
EndSplineSet
EndChar

StartChar: C
Encoding: 67 67 38
Width: 1280
GlyphClass: 2
Flags: W
LayerCount: 2
Fore
SplineSet
1024 1280 m 1,0,-1
 1024 1024 l 1,1,-1
 512 1024 l 1,2,-1
 512 256 l 1,3,-1
 1024 256 l 1,4,-1
 1024 0 l 1,5,-1
 0 0 l 1,6,-1
 0 1280 l 1,7,-1
 1024 1280 l 1,0,-1
EndSplineSet
EndChar

StartChar: D
Encoding: 68 68 39
Width: 1280
GlyphClass: 2
Flags: W
LayerCount: 2
Fore
SplineSet
512 1024 m 1,0,-1
 512 512 l 1,1,-1
 768 512 l 1,2,-1
 768 1024 l 1,3,-1
 512 1024 l 1,0,-1
0 0 m 1,4,-1
 0 1280 l 1,5,-1
 1024 1280 l 1,6,-1
 1024 0 l 1,7,-1
 0 0 l 1,4,-1
EndSplineSet
EndChar

StartChar: E
Encoding: 69 69 40
Width: 1280
GlyphClass: 2
Flags: W
LayerCount: 2
Fore
SplineSet
1024 1280 m 1,0,-1
 1024 1024 l 1,1,-1
 512 1024 l 1,2,-1
 512 768 l 1,3,-1
 768 768 l 1,4,-1
 768 512 l 1,5,-1
 512 512 l 1,6,-1
 512 256 l 1,7,-1
 1024 256 l 1,8,-1
 1024 0 l 1,9,-1
 0 0 l 1,10,-1
 0 1280 l 1,11,-1
 1024 1280 l 1,0,-1
EndSplineSet
EndChar

StartChar: F
Encoding: 70 70 41
Width: 1280
GlyphClass: 2
Flags: W
LayerCount: 2
Fore
SplineSet
1024 1280 m 1,0,-1
 1024 1024 l 1,1,-1
 512 1024 l 1,2,-1
 512 768 l 1,3,-1
 768 768 l 1,4,-1
 768 512 l 1,5,-1
 512 512 l 1,6,-1
 512 0 l 1,7,-1
 0 0 l 1,8,-1
 0 1280 l 1,9,-1
 1024 1280 l 1,0,-1
EndSplineSet
EndChar

StartChar: G
Encoding: 71 71 42
Width: 1280
GlyphClass: 2
Flags: W
LayerCount: 2
Fore
SplineSet
768 256 m 1,0,-1
 768 768 l 1,1,-1
 1024 768 l 1,2,-1
 1024 0 l 1,3,-1
 0 0 l 1,4,-1
 0 1280 l 1,5,-1
 1024 1280 l 1,6,-1
 1024 1024 l 1,7,-1
 512 1024 l 1,8,-1
 512 256 l 1,9,-1
 768 256 l 1,0,-1
EndSplineSet
EndChar

StartChar: H
Encoding: 72 72 43
Width: 1280
GlyphClass: 2
Flags: W
LayerCount: 2
Fore
SplineSet
512 512 m 1,0,-1
 512 0 l 1,1,-1
 0 0 l 1,2,-1
 0 1280 l 1,3,-1
 512 1280 l 1,4,-1
 512 768 l 1,5,-1
 768 768 l 1,6,-1
 768 1280 l 1,7,-1
 1024 1280 l 1,8,-1
 1024 0 l 1,9,-1
 768 0 l 1,10,-1
 768 512 l 1,11,-1
 512 512 l 1,0,-1
EndSplineSet
EndChar

StartChar: I
Encoding: 73 73 44
Width: 1280
GlyphClass: 2
Flags: W
LayerCount: 2
Fore
SplineSet
256 1024 m 1,0,-1
 0 1024 l 1,1,-1
 0 1280 l 1,2,-1
 1024 1280 l 1,3,-1
 1024 1024 l 1,4,-1
 768 1024 l 1,5,-1
 768 256 l 1,6,-1
 1024 256 l 1,7,-1
 1024 0 l 1,8,-1
 0 0 l 1,9,-1
 0 256 l 1,10,-1
 256 256 l 1,11,-1
 256 1024 l 1,0,-1
EndSplineSet
EndChar

StartChar: J
Encoding: 74 74 45
Width: 1280
GlyphClass: 2
Flags: W
LayerCount: 2
Fore
SplineSet
512 1024 m 1,0,-1
 0 1024 l 1,1,-1
 0 1280 l 1,2,-1
 1024 1280 l 1,3,-1
 1024 0 l 1,4,-1
 0 0 l 1,5,-1
 0 512 l 1,6,-1
 256 512 l 1,7,-1
 256 256 l 1,8,-1
 512 256 l 1,9,-1
 512 1024 l 1,0,-1
EndSplineSet
EndChar

StartChar: K
Encoding: 75 75 46
Width: 1280
GlyphClass: 2
Flags: W
LayerCount: 2
Fore
SplineSet
512 512 m 1,0,-1
 512 0 l 1,1,-1
 0 0 l 1,2,-1
 0 1280 l 1,3,-1
 512 1280 l 1,4,-1
 512 768 l 1,5,-1
 768 768 l 1,6,-1
 768 512 l 1,7,-1
 512 512 l 1,0,-1
1024 512 m 1,8,-1
 1024 0 l 1,9,-1
 768 0 l 1,10,-1
 768 512 l 1,11,-1
 1024 512 l 1,8,-1
1024 1024 m 1,12,-1
 1024 768 l 1,13,-1
 768 768 l 1,14,-1
 768 1024 l 1,15,-1
 1024 1024 l 1,12,-1
EndSplineSet
EndChar

StartChar: L
Encoding: 76 76 47
Width: 1280
GlyphClass: 2
Flags: W
LayerCount: 2
Fore
SplineSet
0 0 m 1,0,-1
 0 1280 l 1,1,-1
 512 1280 l 1,2,-1
 512 256 l 1,3,-1
 1024 256 l 1,4,-1
 1024 0 l 1,5,-1
 0 0 l 1,0,-1
EndSplineSet
EndChar

StartChar: M
Encoding: 77 77 48
Width: 1280
GlyphClass: 2
Flags: W
LayerCount: 2
Fore
SplineSet
512 512 m 1,0,-1
 512 0 l 1,1,-1
 0 0 l 1,2,-1
 0 1280 l 1,3,-1
 512 1280 l 1,4,-1
 512 1024 l 1,5,-1
 768 1024 l 1,6,-1
 768 1280 l 1,7,-1
 1024 1280 l 1,8,-1
 1024 0 l 1,9,-1
 768 0 l 1,10,-1
 768 512 l 1,11,-1
 512 512 l 1,0,-1
EndSplineSet
EndChar

StartChar: N
Encoding: 78 78 49
Width: 1280
GlyphClass: 2
Flags: W
LayerCount: 2
Fore
SplineSet
512 1024 m 1,0,-1
 512 0 l 1,1,-1
 0 0 l 1,2,-1
 0 1280 l 1,3,-1
 1024 1280 l 1,4,-1
 1024 0 l 1,5,-1
 768 0 l 1,6,-1
 768 1024 l 1,7,-1
 512 1024 l 1,0,-1
EndSplineSet
EndChar

StartChar: O
Encoding: 79 79 50
Width: 1280
GlyphClass: 2
Flags: W
LayerCount: 2
Fore
SplineSet
512 1024 m 1,0,-1
 512 256 l 1,1,-1
 768 256 l 1,2,-1
 768 1024 l 1,3,-1
 512 1024 l 1,0,-1
0 0 m 1,4,-1
 0 1280 l 1,5,-1
 1024 1280 l 1,6,-1
 1024 0 l 1,7,-1
 0 0 l 1,4,-1
EndSplineSet
EndChar

StartChar: P
Encoding: 80 80 51
Width: 1280
GlyphClass: 2
Flags: W
LayerCount: 2
Fore
SplineSet
512 1024 m 1,0,-1
 512 768 l 1,1,-1
 768 768 l 1,2,-1
 768 1024 l 1,3,-1
 512 1024 l 1,0,-1
512 512 m 1,4,-1
 512 0 l 1,5,-1
 0 0 l 1,6,-1
 0 1280 l 1,7,-1
 1024 1280 l 1,8,-1
 1024 512 l 1,9,-1
 512 512 l 1,4,-1
EndSplineSet
EndChar

StartChar: Q
Encoding: 81 81 52
Width: 1280
GlyphClass: 2
Flags: W
LayerCount: 2
Fore
SplineSet
512 1024 m 1,0,-1
 512 256 l 1,1,-1
 768 256 l 1,2,-1
 768 1024 l 1,3,-1
 512 1024 l 1,0,-1
512 0 m 1,4,-1
 0 0 l 1,5,-1
 0 1280 l 1,6,-1
 1024 1280 l 1,7,-1
 1024 0 l 1,8,-1
 768 0 l 1,9,-1
 768 -256 l 1,10,-1
 512 -256 l 1,11,-1
 512 0 l 1,4,-1
EndSplineSet
EndChar

StartChar: R
Encoding: 82 82 53
Width: 1280
GlyphClass: 2
Flags: W
LayerCount: 2
Fore
SplineSet
512 1024 m 1,0,-1
 512 768 l 1,1,-1
 768 768 l 1,2,-1
 768 1024 l 1,3,-1
 512 1024 l 1,0,-1
512 512 m 1,4,-1
 512 0 l 1,5,-1
 0 0 l 1,6,-1
 0 1280 l 1,7,-1
 1024 1280 l 1,8,-1
 1024 768 l 1,9,-1
 769 768 l 1,10,-1
 769 512 l 1,11,-1
 1024 512 l 1,12,-1
 1024 0 l 1,13,-1
 768 0 l 1,14,-1
 768 512 l 1,15,-1
 512 512 l 1,4,-1
EndSplineSet
EndChar

StartChar: S
Encoding: 83 83 54
Width: 1280
GlyphClass: 2
Flags: W
LayerCount: 2
Fore
SplineSet
0 1280 m 1,0,-1
 1024 1280 l 1,1,-1
 1024 1024 l 1,2,-1
 256 1024 l 1,3,-1
 256 768 l 1,4,-1
 1024 768 l 1,5,-1
 1024 0 l 1,6,-1
 0 0 l 1,7,-1
 0 256 l 1,8,-1
 512 256 l 1,9,-1
 512 512 l 1,10,-1
 0 512 l 1,11,-1
 0 1280 l 1,0,-1
EndSplineSet
EndChar

StartChar: T
Encoding: 84 84 55
Width: 1280
GlyphClass: 2
Flags: W
LayerCount: 2
Fore
SplineSet
256 1024 m 1,0,-1
 0 1024 l 1,1,-1
 0 1280 l 1,2,-1
 1024 1280 l 1,3,-1
 1024 1024 l 1,4,-1
 768 1024 l 1,5,-1
 768 0 l 1,6,-1
 256 0 l 1,7,-1
 256 1024 l 1,0,-1
EndSplineSet
EndChar

StartChar: U
Encoding: 85 85 56
Width: 1280
GlyphClass: 2
Flags: W
LayerCount: 2
Fore
SplineSet
0 0 m 1,0,-1
 0 1280 l 1,1,-1
 512 1280 l 1,2,-1
 512 256 l 1,3,-1
 768 256 l 1,4,-1
 768 1280 l 1,5,-1
 1024 1280 l 1,6,-1
 1024 0 l 1,7,-1
 0 0 l 1,0,-1
EndSplineSet
EndChar

StartChar: V
Encoding: 86 86 57
Width: 1280
GlyphClass: 2
Flags: W
LayerCount: 2
Fore
SplineSet
256 256 m 5,0,-1
 0 256 l 5,1,-1
 0 1280 l 5,2,-1
 512 1280 l 5,3,-1
 512 256 l 5,4,-1
 768 256 l 5,5,-1
 768 1280 l 5,6,-1
 1024 1280 l 5,7,-1
 1024 0 l 5,8,-1
 256 0 l 5,9,-1
 256 256 l 5,0,-1
EndSplineSet
EndChar

StartChar: W
Encoding: 87 87 58
Width: 1280
GlyphClass: 2
Flags: W
LayerCount: 2
Fore
SplineSet
512 256 m 1,0,-1
 512 0 l 1,1,-1
 0 0 l 1,2,-1
 0 1280 l 1,3,-1
 512 1280 l 1,4,-1
 512 768 l 1,5,-1
 768 768 l 1,6,-1
 768 1280 l 1,7,-1
 1024 1280 l 1,8,-1
 1024 0 l 1,9,-1
 768 0 l 1,10,-1
 768 256 l 1,11,-1
 512 256 l 1,0,-1
EndSplineSet
EndChar

StartChar: X
Encoding: 88 88 59
Width: 1280
GlyphClass: 2
Flags: W
LayerCount: 2
Fore
SplineSet
256 768 m 1,0,-1
 0 768 l 1,1,-1
 0 1280 l 1,2,-1
 512 1280 l 1,3,-1
 512 768 l 1,4,-1
 768 768 l 1,5,-1
 768 512 l 1,6,-1
 1024 512 l 1,7,-1
 1024 0 l 1,8,-1
 512 0 l 1,9,-1
 512 512 l 1,10,-1
 256 512 l 1,11,-1
 256 768 l 1,0,-1
1024 1280 m 1,12,-1
 1024 768 l 1,13,-1
 768 768 l 1,14,-1
 768 1280 l 1,15,-1
 1024 1280 l 1,12,-1
256 512 m 1,16,-1
 256 0 l 1,17,-1
 0 0 l 1,18,-1
 0 512 l 1,19,-1
 256 512 l 1,16,-1
EndSplineSet
EndChar

StartChar: Y
Encoding: 89 89 60
Width: 1280
GlyphClass: 2
Flags: W
LayerCount: 2
Fore
SplineSet
256 512 m 1,0,-1
 0 512 l 1,1,-1
 0 1280 l 1,2,-1
 512 1280 l 1,3,-1
 512 768 l 1,4,-1
 768 768 l 1,5,-1
 768 1280 l 1,6,-1
 1024 1280 l 1,7,-1
 1024 512 l 1,8,-1
 768 512 l 1,9,-1
 768 0 l 1,10,-1
 256 0 l 1,11,-1
 256 512 l 1,0,-1
EndSplineSet
EndChar

StartChar: Z
Encoding: 90 90 61
Width: 1280
GlyphClass: 2
Flags: W
LayerCount: 2
Fore
SplineSet
512 1024 m 1,0,-1
 0 1024 l 1,1,-1
 0 1280 l 1,2,-1
 1024 1280 l 1,3,-1
 1024 512 l 1,4,-1
 512 512 l 1,5,-1
 512 256 l 1,6,-1
 1024 256 l 1,7,-1
 1024 0 l 1,8,-1
 0 0 l 1,9,-1
 0 768 l 1,10,-1
 512 768 l 1,11,-1
 512 1024 l 1,0,-1
EndSplineSet
EndChar

StartChar: bracketleft
Encoding: 91 91 62
Width: 1280
GlyphClass: 2
Flags: W
LayerCount: 2
Fore
SplineSet
768 1280 m 1,0,-1
 768 1024 l 1,1,-1
 512 1024 l 1,2,-1
 512 256 l 1,3,-1
 768 256 l 1,4,-1
 768 0 l 1,5,-1
 0 0 l 1,6,-1
 0 1280 l 1,7,-1
 768 1280 l 1,0,-1
EndSplineSet
EndChar

StartChar: backslash
Encoding: 92 92 63
Width: 1280
GlyphClass: 2
Flags: W
LayerCount: 2
Fore
SplineSet
256 768 m 1,0,-1
 0 768 l 1,1,-1
 0 1280 l 1,2,-1
 512 1280 l 1,3,-1
 512 768 l 1,4,-1
 768 768 l 1,5,-1
 768 512 l 1,6,-1
 1024 512 l 1,7,-1
 1024 0 l 1,8,-1
 512 0 l 1,9,-1
 512 512 l 1,10,-1
 256 512 l 1,11,-1
 256 768 l 1,0,-1
EndSplineSet
EndChar

StartChar: bracketright
Encoding: 93 93 64
Width: 1280
GlyphClass: 2
Flags: W
LayerCount: 2
Fore
SplineSet
512 1024 m 1,0,-1
 256 1024 l 1,1,-1
 256 1280 l 1,2,-1
 1024 1280 l 1,3,-1
 1024 0 l 1,4,-1
 256 0 l 1,5,-1
 256 256 l 1,6,-1
 512 256 l 1,7,-1
 512 1024 l 1,0,-1
EndSplineSet
EndChar

StartChar: underscore
Encoding: 95 95 66
Width: 1280
GlyphClass: 2
Flags: W
LayerCount: 2
Fore
SplineSet
1024 256 m 1,0,-1
 1024 0 l 1,1,-1
 0 0 l 1,2,-1
 0 256 l 1,3,-1
 1024 256 l 1,0,-1
EndSplineSet
EndChar

StartChar: grave
Encoding: 96 96 67
Width: 1280
GlyphClass: 2
Flags: W
LayerCount: 2
Fore
SplineSet
768 1280 m 1,0,-1
 768 512 l 1,1,-1
 256 512 l 1,2,-1
 256 1280 l 1,3,-1
 768 1280 l 1,0,-1
EndSplineSet
EndChar

StartChar: a
Encoding: 97 97 68
Width: 1280
GlyphClass: 2
Flags: W
LayerCount: 2
Fore
SplineSet
512 1024 m 1,0,-1
 512 768 l 1,1,-1
 768 768 l 1,2,-1
 768 1024 l 1,3,-1
 512 1024 l 1,0,-1
512 512 m 1,4,-1
 512 0 l 1,5,-1
 0 0 l 1,6,-1
 0 1280 l 1,7,-1
 1024 1280 l 1,8,-1
 1024 0 l 1,9,-1
 768 0 l 1,10,-1
 768 512 l 1,11,-1
 512 512 l 1,4,-1
EndSplineSet
EndChar

StartChar: b
Encoding: 98 98 69
Width: 1280
GlyphClass: 2
Flags: W
LayerCount: 2
Fore
SplineSet
512 1024 m 1,0,-1
 512 768 l 1,1,-1
 768 768 l 1,2,-1
 768 1024 l 1,3,-1
 512 1024 l 1,0,-1
512 512 m 1,4,-1
 512 256 l 1,5,-1
 768 256 l 1,6,-1
 768 512 l 1,7,-1
 512 512 l 1,4,-1
0 0 m 1,8,-1
 0 1280 l 1,9,-1
 1024 1280 l 1,10,-1
 1024 0 l 1,11,-1
 0 0 l 1,8,-1
EndSplineSet
EndChar

StartChar: c
Encoding: 99 99 70
Width: 1280
GlyphClass: 2
Flags: W
LayerCount: 2
Fore
SplineSet
1024 1280 m 1,0,-1
 1024 1024 l 1,1,-1
 512 1024 l 1,2,-1
 512 256 l 1,3,-1
 1024 256 l 1,4,-1
 1024 0 l 1,5,-1
 0 0 l 1,6,-1
 0 1280 l 1,7,-1
 1024 1280 l 1,0,-1
EndSplineSet
EndChar

StartChar: d
Encoding: 100 100 71
Width: 1280
GlyphClass: 2
Flags: W
LayerCount: 2
Fore
SplineSet
512 1024 m 1,0,-1
 512 512 l 1,1,-1
 768 512 l 1,2,-1
 768 1024 l 1,3,-1
 512 1024 l 1,0,-1
0 0 m 1,4,-1
 0 1280 l 1,5,-1
 1024 1280 l 1,6,-1
 1024 0 l 1,7,-1
 0 0 l 1,4,-1
EndSplineSet
EndChar

StartChar: e
Encoding: 101 101 72
Width: 1280
GlyphClass: 2
Flags: W
LayerCount: 2
Fore
SplineSet
1024 1280 m 1,0,-1
 1024 1024 l 1,1,-1
 512 1024 l 1,2,-1
 512 768 l 1,3,-1
 768 768 l 1,4,-1
 768 512 l 1,5,-1
 512 512 l 1,6,-1
 512 256 l 1,7,-1
 1024 256 l 1,8,-1
 1024 0 l 1,9,-1
 0 0 l 1,10,-1
 0 1280 l 1,11,-1
 1024 1280 l 1,0,-1
EndSplineSet
EndChar

StartChar: f
Encoding: 102 102 73
Width: 1280
GlyphClass: 2
Flags: W
LayerCount: 2
Fore
SplineSet
1024 1280 m 1,0,-1
 1024 1024 l 1,1,-1
 512 1024 l 1,2,-1
 512 768 l 1,3,-1
 768 768 l 1,4,-1
 768 512 l 1,5,-1
 512 512 l 1,6,-1
 512 0 l 1,7,-1
 0 0 l 1,8,-1
 0 1280 l 1,9,-1
 1024 1280 l 1,0,-1
EndSplineSet
EndChar

StartChar: g
Encoding: 103 103 74
Width: 1280
GlyphClass: 2
Flags: W
LayerCount: 2
Fore
SplineSet
768 256 m 1,0,-1
 768 768 l 1,1,-1
 1024 768 l 1,2,-1
 1024 0 l 1,3,-1
 0 0 l 1,4,-1
 0 1280 l 1,5,-1
 1024 1280 l 1,6,-1
 1024 1024 l 1,7,-1
 512 1024 l 1,8,-1
 512 256 l 1,9,-1
 768 256 l 1,0,-1
EndSplineSet
EndChar

StartChar: h
Encoding: 104 104 75
Width: 1280
GlyphClass: 2
Flags: W
LayerCount: 2
Fore
SplineSet
512 512 m 1,0,-1
 512 0 l 1,1,-1
 0 0 l 1,2,-1
 0 1280 l 1,3,-1
 512 1280 l 1,4,-1
 512 768 l 1,5,-1
 768 768 l 1,6,-1
 768 1280 l 1,7,-1
 1024 1280 l 1,8,-1
 1024 0 l 1,9,-1
 768 0 l 1,10,-1
 768 512 l 1,11,-1
 512 512 l 1,0,-1
EndSplineSet
EndChar

StartChar: i
Encoding: 105 105 76
Width: 1280
GlyphClass: 2
Flags: W
LayerCount: 2
Fore
SplineSet
256 1024 m 1,0,-1
 0 1024 l 1,1,-1
 0 1280 l 1,2,-1
 1024 1280 l 1,3,-1
 1024 1024 l 1,4,-1
 768 1024 l 1,5,-1
 768 256 l 1,6,-1
 1024 256 l 1,7,-1
 1024 0 l 1,8,-1
 0 0 l 1,9,-1
 0 256 l 1,10,-1
 256 256 l 1,11,-1
 256 1024 l 1,0,-1
EndSplineSet
EndChar

StartChar: j
Encoding: 106 106 77
Width: 1280
GlyphClass: 2
Flags: W
LayerCount: 2
Fore
SplineSet
512 1024 m 1,0,-1
 0 1024 l 1,1,-1
 0 1280 l 1,2,-1
 1024 1280 l 1,3,-1
 1024 0 l 1,4,-1
 0 0 l 1,5,-1
 0 512 l 1,6,-1
 256 512 l 1,7,-1
 256 256 l 1,8,-1
 512 256 l 1,9,-1
 512 1024 l 1,0,-1
EndSplineSet
EndChar

StartChar: k
Encoding: 107 107 78
Width: 1280
GlyphClass: 2
Flags: W
LayerCount: 2
Fore
SplineSet
512 512 m 1,0,-1
 512 0 l 1,1,-1
 0 0 l 1,2,-1
 0 1280 l 1,3,-1
 512 1280 l 1,4,-1
 512 768 l 1,5,-1
 768 768 l 1,6,-1
 768 512 l 1,7,-1
 512 512 l 1,0,-1
1024 512 m 1,8,-1
 1024 0 l 1,9,-1
 768 0 l 1,10,-1
 768 512 l 1,11,-1
 1024 512 l 1,8,-1
1024 1024 m 1,12,-1
 1024 768 l 1,13,-1
 768 768 l 1,14,-1
 768 1024 l 1,15,-1
 1024 1024 l 1,12,-1
EndSplineSet
EndChar

StartChar: l
Encoding: 108 108 79
Width: 1280
GlyphClass: 2
Flags: W
LayerCount: 2
Fore
SplineSet
0 0 m 1,0,-1
 0 1280 l 1,1,-1
 512 1280 l 1,2,-1
 512 256 l 1,3,-1
 1024 256 l 1,4,-1
 1024 0 l 1,5,-1
 0 0 l 1,0,-1
EndSplineSet
EndChar

StartChar: m
Encoding: 109 109 80
Width: 1280
GlyphClass: 2
Flags: W
LayerCount: 2
Fore
SplineSet
512 512 m 1,0,-1
 512 0 l 1,1,-1
 0 0 l 1,2,-1
 0 1280 l 1,3,-1
 512 1280 l 1,4,-1
 512 1024 l 1,5,-1
 768 1024 l 1,6,-1
 768 1280 l 1,7,-1
 1024 1280 l 1,8,-1
 1024 0 l 1,9,-1
 768 0 l 1,10,-1
 768 512 l 1,11,-1
 512 512 l 1,0,-1
EndSplineSet
EndChar

StartChar: n
Encoding: 110 110 81
Width: 1280
GlyphClass: 2
Flags: W
LayerCount: 2
Fore
SplineSet
512 1024 m 1,0,-1
 512 0 l 1,1,-1
 0 0 l 1,2,-1
 0 1280 l 1,3,-1
 1024 1280 l 1,4,-1
 1024 0 l 1,5,-1
 768 0 l 1,6,-1
 768 1024 l 1,7,-1
 512 1024 l 1,0,-1
EndSplineSet
EndChar

StartChar: o
Encoding: 111 111 82
Width: 1280
GlyphClass: 2
Flags: W
LayerCount: 2
Fore
SplineSet
512 1024 m 1,0,-1
 512 256 l 1,1,-1
 768 256 l 1,2,-1
 768 1024 l 1,3,-1
 512 1024 l 1,0,-1
0 0 m 1,4,-1
 0 1280 l 1,5,-1
 1024 1280 l 1,6,-1
 1024 0 l 1,7,-1
 0 0 l 1,4,-1
EndSplineSet
EndChar

StartChar: p
Encoding: 112 112 83
Width: 1280
GlyphClass: 2
Flags: W
LayerCount: 2
Fore
SplineSet
512 1024 m 1,0,-1
 512 768 l 1,1,-1
 768 768 l 1,2,-1
 768 1024 l 1,3,-1
 512 1024 l 1,0,-1
512 512 m 1,4,-1
 512 0 l 1,5,-1
 0 0 l 1,6,-1
 0 1280 l 1,7,-1
 1024 1280 l 1,8,-1
 1024 512 l 1,9,-1
 512 512 l 1,4,-1
EndSplineSet
EndChar

StartChar: q
Encoding: 113 113 84
Width: 1280
GlyphClass: 2
Flags: W
LayerCount: 2
Fore
SplineSet
512 1024 m 1,0,-1
 512 256 l 1,1,-1
 768 256 l 1,2,-1
 768 1024 l 1,3,-1
 512 1024 l 1,0,-1
512 0 m 1,4,-1
 0 0 l 1,5,-1
 0 1280 l 1,6,-1
 1024 1280 l 1,7,-1
 1024 0 l 1,8,-1
 768 0 l 1,9,-1
 768 -256 l 1,10,-1
 512 -256 l 5,11,-1
 512 0 l 1,4,-1
EndSplineSet
EndChar

StartChar: r
Encoding: 114 114 85
Width: 1280
GlyphClass: 2
Flags: W
LayerCount: 2
Fore
SplineSet
512 1024 m 1,0,-1
 512 768 l 1,1,-1
 768 768 l 1,2,-1
 768 1024 l 1,3,-1
 512 1024 l 1,0,-1
512 512 m 1,4,-1
 512 0 l 1,5,-1
 0 0 l 1,6,-1
 0 1280 l 1,7,-1
 1024 1280 l 1,8,-1
 1024 768 l 1,9,-1
 769 768 l 1,10,-1
 769 512 l 1,11,-1
 1024 512 l 1,12,-1
 1024 0 l 1,13,-1
 768 0 l 1,14,-1
 768 512 l 1,15,-1
 512 512 l 1,4,-1
EndSplineSet
EndChar

StartChar: s
Encoding: 115 115 86
Width: 1280
GlyphClass: 2
Flags: W
LayerCount: 2
Fore
SplineSet
0 1280 m 1,0,-1
 1024 1280 l 1,1,-1
 1024 1024 l 1,2,-1
 256 1024 l 1,3,-1
 256 768 l 1,4,-1
 1024 768 l 1,5,-1
 1024 0 l 1,6,-1
 0 0 l 1,7,-1
 0 256 l 1,8,-1
 512 256 l 1,9,-1
 512 512 l 1,10,-1
 0 512 l 1,11,-1
 0 1280 l 1,0,-1
EndSplineSet
EndChar

StartChar: t
Encoding: 116 116 87
Width: 1280
GlyphClass: 2
Flags: W
LayerCount: 2
Fore
SplineSet
256 1024 m 1,0,-1
 0 1024 l 1,1,-1
 0 1280 l 1,2,-1
 1024 1280 l 1,3,-1
 1024 1024 l 1,4,-1
 768 1024 l 1,5,-1
 768 0 l 1,6,-1
 256 0 l 1,7,-1
 256 1024 l 1,0,-1
EndSplineSet
EndChar

StartChar: u
Encoding: 117 117 88
Width: 1280
GlyphClass: 2
Flags: W
LayerCount: 2
Fore
SplineSet
0 0 m 1,0,-1
 0 1280 l 1,1,-1
 512 1280 l 1,2,-1
 512 256 l 1,3,-1
 768 256 l 1,4,-1
 768 1280 l 1,5,-1
 1024 1280 l 1,6,-1
 1024 0 l 1,7,-1
 0 0 l 1,0,-1
EndSplineSet
EndChar

StartChar: v
Encoding: 118 118 89
Width: 1280
GlyphClass: 2
Flags: W
LayerCount: 2
Fore
SplineSet
256 256 m 1,0,-1
 0 256 l 1,1,-1
 0 1280 l 1,2,-1
 512 1280 l 1,3,-1
 512 256 l 1,4,-1
 768 256 l 1,5,-1
 768 1280 l 1,6,-1
 1024 1280 l 1,7,-1
 1024 0 l 1,8,-1
 256 0 l 1,9,-1
 256 256 l 1,0,-1
EndSplineSet
EndChar

StartChar: w
Encoding: 119 119 90
Width: 1280
GlyphClass: 2
Flags: W
LayerCount: 2
Fore
SplineSet
512 256 m 1,0,-1
 512 0 l 1,1,-1
 0 0 l 1,2,-1
 0 1280 l 1,3,-1
 512 1280 l 1,4,-1
 512 768 l 1,5,-1
 768 768 l 1,6,-1
 768 1280 l 1,7,-1
 1024 1280 l 1,8,-1
 1024 0 l 1,9,-1
 768 0 l 1,10,-1
 768 256 l 1,11,-1
 512 256 l 1,0,-1
EndSplineSet
EndChar

StartChar: x
Encoding: 120 120 91
Width: 1280
GlyphClass: 2
Flags: W
LayerCount: 2
Fore
SplineSet
256 768 m 1,0,-1
 0 768 l 1,1,-1
 0 1280 l 1,2,-1
 512 1280 l 1,3,-1
 512 768 l 1,4,-1
 768 768 l 1,5,-1
 768 512 l 1,6,-1
 1024 512 l 1,7,-1
 1024 0 l 1,8,-1
 512 0 l 1,9,-1
 512 512 l 1,10,-1
 256 512 l 1,11,-1
 256 768 l 1,0,-1
1024 1280 m 1,12,-1
 1024 768 l 1,13,-1
 768 768 l 1,14,-1
 768 1280 l 1,15,-1
 1024 1280 l 1,12,-1
256 512 m 1,16,-1
 256 0 l 1,17,-1
 0 0 l 1,18,-1
 0 512 l 1,19,-1
 256 512 l 1,16,-1
EndSplineSet
EndChar

StartChar: y
Encoding: 121 121 92
Width: 1280
GlyphClass: 2
Flags: W
LayerCount: 2
Fore
SplineSet
256 512 m 1,0,-1
 0 512 l 1,1,-1
 0 1280 l 1,2,-1
 512 1280 l 1,3,-1
 512 768 l 1,4,-1
 768 768 l 1,5,-1
 768 1280 l 1,6,-1
 1024 1280 l 1,7,-1
 1024 512 l 1,8,-1
 768 512 l 1,9,-1
 768 0 l 1,10,-1
 256 0 l 1,11,-1
 256 512 l 1,0,-1
EndSplineSet
EndChar

StartChar: z
Encoding: 122 122 93
Width: 1280
GlyphClass: 2
Flags: W
LayerCount: 2
Fore
SplineSet
512 1024 m 1,0,-1
 0 1024 l 1,1,-1
 0 1280 l 1,2,-1
 1024 1280 l 1,3,-1
 1024 512 l 1,4,-1
 512 512 l 1,5,-1
 512 256 l 1,6,-1
 1024 256 l 1,7,-1
 1024 0 l 1,8,-1
 0 0 l 1,9,-1
 0 768 l 1,10,-1
 512 768 l 1,11,-1
 512 1024 l 1,0,-1
EndSplineSet
EndChar

StartChar: bar
Encoding: 124 124 95
Width: 1280
GlyphClass: 2
Flags: W
LayerCount: 2
Fore
SplineSet
768 1280 m 1,0,-1
 768 0 l 1,1,-1
 256 0 l 1,2,-1
 256 1280 l 1,3,-1
 768 1280 l 1,0,-1
EndSplineSet
EndChar

StartChar: divide
Encoding: 247 247 183
Width: 1280
GlyphClass: 2
Flags: WO
LayerCount: 2
Fore
SplineSet
768 1024 m 1,0,-1
 1024 1024 l 1,1,-1
 1024 768 l 1,2,-1
 768 768 l 1,3,-1
 768 1024 l 1,0,-1
512 768 m 1,4,-1
 768 768 l 1,5,-1
 768 512 l 1,6,-1
 512 512 l 1,7,-1
 512 768 l 1,4,-1
256 512 m 1,8,-1
 512 512 l 1,9,-1
 512 256 l 1,10,-1
 256 256 l 1,11,-1
 256 512 l 1,8,-1
253 -657 m 1025,12,-1
0 256 m 1,13,-1
 256 256 l 1,14,-1
 256 0 l 1,15,-1
 0 0 l 1,16,-1
 0 256 l 1,13,-1
EndSplineSet
EndChar

